<svg xmlns="http://www.w3.org/2000/svg" xml:space="preserve" id="_x31_" width="128" height="128" x="0" y="0" style="enable-background:new 0 0 28 28" version="1.1" viewBox="0 0 28 28"><style>.st0{fill:#ff7c66}.st1{fill:#ffab66}.st2{fill:#ffe577}.st3{fill:#deff8f}</style><path d="M21.5 14c-2.838.261-4.231 3.062-2.091 7.281s1.528 6.305 3.629 4.719.682-3.465 2.462-5.735.383-6.669-4-6.265z" style="fill:#ffa0c6"/><path d="M22.423 26h-1.846c-.537 0-1.115-.404-1.115-1.291v-1.304c0-.531-.272-1.049-.747-1.421a4.432 4.432 0 0 1-1.714-3.6c.046-2.382 2.033-4.35 4.432-4.385a4.397 4.397 0 0 1 3.236 1.298A4.431 4.431 0 0 1 26 18.473a4.448 4.448 0 0 1-1.651 3.461c-.515.419-.811.993-.811 1.573v1.382c0 .613-.5 1.111-1.115 1.111zm-.925-11h-.051c-1.833.027-3.412 1.586-3.446 3.404a3.44 3.44 0 0 0 1.331 2.793c.718.562 1.13 1.368 1.13 2.208v1.304c0 .03.003.291.115.291h1.846c.063 0 .115-.05.115-.111v-1.382c0-.883.43-1.739 1.18-2.349a3.452 3.452 0 0 0 .25-5.148 3.49 3.49 0 0 0-2.47-1.01z"/><path d="M23.038 24.167h-3.076a.5.5 0 0 1 0-1h3.076a.5.5 0 0 1 0 1zM15.5 23h-11A2.502 2.502 0 0 1 2 20.5v-13C2 6.121 3.121 5 4.5 5h2a.5.5 0 0 1 0 1h-2C3.673 6 3 6.673 3 7.5v13c0 .827.673 1.5 1.5 1.5h11a.5.5 0 0 1 0 1z"/><path d="M13.5 8h-6C6.673 8 6 7.327 6 6.5v-2a.5.5 0 0 1 .5-.5h1.55c.232-1.14 1.243-2 2.45-2s2.218.86 2.45 2h1.55a.5.5 0 0 1 .5.5v2c0 .827-.673 1.5-1.5 1.5zM7 5v1.5c0 .275.225.5.5.5h6c.275 0 .5-.225.5-.5V5h-1.5a.5.5 0 0 1-.5-.5c0-.827-.673-1.5-1.5-1.5S9 3.673 9 4.5a.5.5 0 0 1-.5.5H7zM15.5 11h-10a.5.5 0 0 1 0-1h10a.5.5 0 0 1 0 1zM15.5 14h-10a.5.5 0 0 1 0-1h10a.5.5 0 0 1 0 1zM14.5 17h-9a.5.5 0 0 1 0-1h9a.5.5 0 0 1 0 1z"/><path d="M18.5 13a.5.5 0 0 1-.5-.5v-5c0-.827-.673-1.5-1.5-1.5h-2a.5.5 0 0 1 0-1h2C17.879 5 19 6.121 19 7.5v5a.5.5 0 0 1-.5.5z"/></svg>